<svg id="SvgjsSvg1068" width="360" height="360" xmlns="http://www.w3.org/2000/svg" version="1.1" xmlns:xlink="http://www.w3.org/1999/xlink" xmlns:svgjs="http://svgjs.com/svgjs"><defs id="SvgjsDefs1069"></defs><g id="SvgjsG1070"><svg xmlns="http://www.w3.org/2000/svg" fill="none" viewBox="0 0 3000 3000" width="360" height="360"><path fill="#000000" d="M1232.99 936.913C1150.58 1006.64 990.008 995.016 920.02 980.491C836.827 970.304 931.905 909.182 1106.21 853.72C1280.52 798.258 1355.79 719.026 1367.68 770.527C1379.56 822.027 1335.99 849.758 1232.99 936.913Z" class="colorE7E8FF svgShape"></path><path fill="#000000" d="M2337.12 1336.91C2371.82 1648.9 2421.95 1691.27 2626.32 1930.09C2788.41 2119.5 2630.37 2454.34 2528.69 2604.03H1027.77C939.909 2604.03 653.45 2346.44 596.331 2279.68C576.869 2256.94 554.417 2232.87 528.63 2207.42C212.434 1895.42 393.668 1267.57 617.319 1144.31C840.97 1021.05 1095.47 1256.02 1496.5 893.943C1897.53 531.87 2304.98 1048.02 2337.12 1336.91Z" class="colorE7E8FF svgShape"></path><path fill="#d6e05e" d="M872.937 2068.86C864.306 2273.14 991.768 2496.78 1064.12 2593.21C1067.89 2598.25 1073.82 2601.1 1080.12 2601.1H1133.91C1146.11 2601.1 1155.56 2590.27 1153.96 2578.19C1106.03 2217.85 973.211 2083.22 895.432 2052.97C884.391 2048.68 873.437 2057.04 872.937 2068.86Z" class="colorfff svgShape"></path><path fill="#dcdcdc" fill-rule="evenodd" d="M892.969 2059.29C886.969 2056.95 880.054 2061.19 879.718 2069.15C875.462 2169.89 904.78 2275.81 944.405 2368.83C984.006 2461.78 1033.68 2541.33 1069.55 2589.15C1072 2592.41 1075.88 2594.33 1080.12 2594.33H1133.91C1141.98 2594.33 1148.3 2587.13 1147.23 2579.08C1099.43 2219.68 967.305 2088.19 892.969 2059.29ZM866.157 2068.58C866.819 2052.9 881.812 2040.4 897.895 2046.66C979.117 2078.24 1112.64 2216.02 1160.68 2577.3C1162.83 2593.41 1150.24 2607.88 1133.91 2607.88H1080.12C1071.76 2607.88 1063.79 2604.08 1058.69 2597.27C1022.21 2548.65 971.974 2468.17 931.915 2374.13C891.879 2280.15 861.782 2172.11 866.157 2068.58Z" clip-rule="evenodd" class="color032068 svgShape"></path><path fill="#dcdcdc" d="M1280.17 1947.05C1112.75 2096.46 1079.23 2446.61 1079.71 2584.09C1079.75 2595.06 1088.77 2603.58 1099.75 2603.58H1149.56C1157.09 2603.58 1164.1 2599.28 1167.58 2592.61C1335.15 2271.88 1317.91 2072.73 1311.84 1961.7C1310.95 1945.38 1292.37 1936.17 1280.17 1947.05Z" class="color032068 svgShape"></path><path fill="#d6e05e" d="M1412.37 2259.64C1280.36 2322.62 1176.35 2478.28 1128.29 2572.84C1121.61 2585.98 1131.39 2601.1 1146.14 2601.1H1205.35C1209.27 2601.1 1213.15 2599.96 1216.42 2597.79C1360.24 2502.51 1419.83 2360.92 1436.92 2278.81C1439.94 2264.27 1425.79 2253.23 1412.37 2259.64Z" class="colorfff svgShape"></path><path fill="#dcdcdc" fill-rule="evenodd" d="M1430.27 2277.43C1432.15 2268.41 1423.68 2261.75 1415.29 2265.75C1350.53 2296.65 1292.27 2350.5 1244.08 2408.71C1195.94 2466.88 1158.18 2528.99 1134.34 2575.91C1130.08 2584.29 1136.18 2594.33 1146.14 2594.33H1205.35C1207.96 2594.33 1210.53 2593.56 1212.67 2592.15L1216.42 2597.79L1212.67 2592.15C1354.62 2498.1 1413.44 2358.3 1430.27 2277.43ZM1409.44 2253.53C1427.9 2244.72 1447.74 2260.13 1443.56 2280.19C1426.21 2363.55 1365.86 2506.92 1220.17 2603.44C1215.77 2606.36 1210.58 2607.88 1205.35 2607.88H1146.14C1126.6 2607.88 1113.15 2587.66 1122.24 2569.77C1146.45 2522.13 1184.73 2459.14 1233.62 2400.08C1282.45 2341.08 1342.2 2285.61 1409.44 2253.53Z" clip-rule="evenodd" class="color032068 svgShape"></path><path fill="#dcdcdc" fill-rule="evenodd" d="M944.281 2132.03C972.046 2169.65 998.202 2221.16 1021.66 2276.9C1037.54 2314.65 1052.25 2354.48 1065.42 2393.49L1078.52 2351.71L1091.48 2355.76L1072.73 2415.53C1084.77 2452.48 1095.35 2488.2 1104.16 2520.14C1112.3 2549.66 1118.94 2575.98 1123.82 2597.1L1110.6 2600.15C1105.93 2579.97 1099.63 2554.92 1091.92 2526.82L1045.06 2505.86L1050.61 2493.5L1087.2 2509.86C1079.1 2481.16 1069.68 2449.86 1059.15 2417.68C1044.8 2373.76 1028.4 2328.23 1010.5 2285.37L947.251 2271.29L950.205 2258.06L1003.97 2270.03C982.074 2219.47 958.212 2173.75 933.354 2140.06L944.281 2132.03Z" clip-rule="evenodd" class="color032068 svgShape"></path><path fill="#d6e05e" fill-rule="evenodd" d="M1227.44 2178.32C1237.25 2143.19 1246.6 2111.39 1255 2085.14C1264.75 2054.66 1273.09 2032.15 1279.29 2020.49L1267.31 2014.13C1260.45 2027.01 1251.79 2050.63 1242.07 2081.01C1232.29 2111.57 1221.28 2149.47 1209.77 2191.24C1201.74 2220.4 1193.46 2251.46 1185.18 2283.27L1165.57 2237.29L1153.08 2242.59L1179.6 2304.79C1169.59 2343.62 1159.65 2383.17 1150.23 2421.37C1133.91 2487.52 1119.12 2549.66 1108.12 2597.1L1121.34 2600.16C1132.17 2553.48 1146.67 2492.53 1162.69 2427.54L1229.43 2391.86L1223.02 2379.92L1167.06 2409.83C1175.56 2375.57 1184.41 2340.45 1193.32 2305.95C1203 2268.43 1212.74 2231.63 1222.15 2197.43L1276.84 2164.09L1269.76 2152.53L1227.44 2178.32Z" clip-rule="evenodd" class="colorfff svgShape"></path><path fill="#dcdcdc" fill-rule="evenodd" d="M1333.84 2371.34C1350.34 2354.22 1366.46 2339.03 1381.62 2326.85L1373.11 2316.29C1353.16 2332.33 1331.86 2353.15 1310.49 2376.36C1296.64 2391.39 1282.71 2407.46 1269.05 2423.94L1272.57 2401.79L1259.16 2399.67L1251.98 2444.9C1233.98 2467.36 1216.69 2490.11 1200.93 2511.6C1176.32 2545.15 1155.39 2575.69 1141.25 2597.41L1152.63 2604.79C1166.24 2583.9 1186.26 2554.65 1209.85 2522.38H1258.4V2508.82H1219.84C1233.63 2490.27 1248.42 2471 1263.69 2451.97C1281.7 2429.54 1300.36 2407.47 1318.86 2387.29L1365.98 2380.22L1363.97 2366.82L1333.84 2371.34Z" clip-rule="evenodd" class="color032068 svgShape"></path><path fill="#d6e05e" d="M1616.54 2607.88H1942.09C2118.66 2544.17 2295.23 2250.56 2132.46 2281.03C1969.68 2311.5 1809.66 2297.65 2022.1 2192.39C2234.54 2087.14 2118.66 2006.81 2022.1 2015.12C1925.54 2023.43 1942.09 1956.95 1980.72 1829.54C2019.34 1702.12 1980.72 1585.79 1873.12 1585.79C1765.52 1585.79 1851.05 1901.56 1765.52 1923.72C1679.99 1945.87 1721.38 1799.07 1616.54 1829.54C1511.7 1860.01 1682.75 2222.86 1616.54 2192.39C1550.32 2161.93 1558.6 2015.12 1439.97 2125.92C1345.06 2214.55 1518.14 2484.16 1616.54 2607.88Z" class="colorfff svgShape"></path><path fill="#dcdcdc" d="M814.066 2604.68L798.358 2479.03H142.589L130.809 2604.68H814.066Z" class="color032068 svgShape"></path><path fill="#ffaaaa" d="M1299.93 1875.55C1264.82 1896.02 1219.48 1920.63 1201.19 1930.38L1179.25 2051.01C1192.66 2037.61 1237.76 2004.95 1310.9 1981.56 1402.31 1952.31 1482.76 1904.79 1457.16 1864.58 1436.69 1832.41 1390.12 1851.18 1369.4 1864.58 1360.87 1859.71 1335.03 1855.08 1299.93 1875.55zM1202.61 1487.54C1196.93 1507.36 1174.2 1531.19 1163.55 1540.63 1183.67 1573.67 1226.05 1636.91 1234.58 1625.58 1245.23 1611.42 1273.64 1572.49 1337.57 1519.4 1401.5 1466.3 1373.08 1402.59 1337.57 1395.51 1302.05 1388.44 1262.99 1445.07 1255.89 1445.07 1248.78 1445.07 1252.33 1434.45 1255.89 1416.75 1259.44 1399.05 1252.33 1377.82 1223.92 1402.59 1195.51 1427.37 1209.72 1462.76 1202.61 1487.54zM568.971 1204.19L519.559 1288.38 648.791 1407.02 702.004 1276.9 702.773 1276.99C737.117 1280.84 797.339 1287.59 838.838 1181.23 880.649 1074.07 857.843 947.776 702.004 951.603 577.333 954.665 561.369 1121.27 568.971 1204.19z" class="colorEFCB96 svgShape"></path><path fill="#c133f5" fill-rule="evenodd" d="M130.811 2498.66C87.6169 2494.73 64.4139 2432.72 130.811 2062.79C213.273 1603.36 397.831 1261.73 484.22 1253.88C570.608 1246.03 700.191 1407.02 711.972 1438.44C712.686 1440.34 713.617 1443.91 714.741 1448.93C715.126 1449.36 715.512 1449.79 715.897 1450.22C765.636 1526.13 871.397 1681.9 896.528 1697.6C914.369 1708.75 982.873 1647.71 1045.21 1592.16C1092.64 1549.9 1136.5 1510.81 1151.77 1509.12C1187.11 1505.19 1289.2 1603.36 1289.2 1622.99C1289.2 1634.19 1211.27 1774.44 1133.37 1900.88C1165.5 1894.56 1189.75 1892.38 1198.89 1897.87C1238.16 1921.43 1281.35 2051.01 1269.57 2090.28C1260.15 2121.69 990.772 2299.71 857.262 2384.79C856.413 2408.13 858.921 2428.3 860.986 2444.91C865.29 2479.53 867.669 2498.66 833.701 2498.66H130.811Z" clip-rule="evenodd" class="colorF4AD5E svgShape"></path><path fill="#dcdcdc" d="M590.24 2404.42C684.482 2442.12 807.521 2407.04 857.26 2384.79L861.186 2435.83C802.285 2464.63 664.063 2492.38 566.679 2435.83 469.296 2379.29 391.284 2035.3 362.488 1866.45 399.138 2030.07 495.998 2366.72 590.24 2404.42zM549.73 1189.25C552.738 1213.45 583.569 1229.58 598.609 1234.62 607.382 1238.4 628.688 1246.72 643.728 1249.75 662.528 1253.53 703.888 1204.37 673.808 1170.34 643.728 1136.31 681.328 1068.25 711.407 1094.72 741.487 1121.19 722.687 1189.25 737.727 1181.68 752.767 1174.12 775.327 1094.72 812.926 1079.59 850.525 1064.47 967.084 1098.5 974.604 1011.53 982.124 924.564 895.645 924.563 835.486 924.563 775.327 924.563 733.967 879.189 624.928 924.563 515.89 969.938 545.97 1159 549.73 1189.25z" class="color032068 svgShape"></path><path fill="#dcdcdc" d="M782.652 2412.27C675.844 2296.04 535.266 2252.59 480.291 2247.35 492.071 2293.16 547.046 2394.21 594.167 2408.35 668.776 2435.83 747.311 2420.13 782.652 2412.27zM833.699 1941.06C821.134 1925.35 786.578 1662.26 770.871 1532.68L715.896 1454.14C739.457 1622.99 792.861 1963.05 817.992 1972.48 843.124 1981.9 1035.27 1929.28 1128.21 1901.79 1035.27 1921.43 846.265 1956.77 833.699 1941.06zM660.922 1265.66C670.346 1268.8 693.645 1274.82 704.116 1277.44L688.409 1308.85 660.922 1265.66zM2111.81 2468.08L2092.18 2609.45H2877.53L2857.9 2468.08H2111.81z" class="color032068 svgShape"></path><path fill="#ffaaaa" d="M1655.58 1220.05C1657.53 1240.57 1675.51 1268.17 1684.25 1279.4 1658.4 1308.19 1605.14 1362.58 1598.84 1349.88 1590.96 1334.01 1570.18 1290.52 1517.08 1226.6 1463.97 1162.68 1503.59 1105.26 1539.8 1104.82 1576.01 1104.38 1604.03 1167.22 1611.01 1168.52 1617.99 1169.82 1616.45 1158.73 1616.2 1140.68 1615.96 1122.63 1626.84 1103.06 1650.22 1132.63 1673.61 1162.2 1653.15 1194.39 1655.58 1220.05zM2403.55 1215.52L2449.52 1295.36 2329.3 1407.86 2279.8 1284.47 2279.08 1284.55C2247.14 1288.2 2191.12 1294.6 2152.51 1193.74 2113.62 1092.13 2134.83 972.367 2279.8 975.996 2395.77 978.899 2410.62 1136.89 2403.55 1215.52z" class="colorEFCB96 svgShape"></path><path fill="#c133f5" fill-rule="evenodd" d="M2262.33 1400.55C2167.14 1440.94 1985.33 1512.98 1942.96 1509.95C1913.2 1507.83 1856.97 1432.05 1804.8 1361.74C1760.6 1302.18 1719.31 1246.54 1699.5 1242.93C1656.31 1235.08 1558.14 1317.54 1550.29 1341.1C1542.43 1364.66 1762.33 1828.02 1840.87 1867.29C1896.92 1895.32 2059.24 1844.16 2157.73 1805.85C2116.51 2071.54 2081.06 2384.84 2076.47 2444.52C2073.12 2488.03 2091.91 2511.18 2115.74 2522.53C2112.63 2532.07 2110.14 2541.52 2107.53 2551.41C2106.96 2553.57 2106.38 2555.75 2105.79 2557.95C2100.09 2579.34 2115.78 2601.59 2137.91 2601.59H2302.03C2320.57 2601.59 2337.89 2592.33 2348.17 2576.9L2378.83 2530.91H2512.34H2818.63C2956.06 2530.91 2912.87 2271.75 2818.63 1859.44C2724.39 1447.13 2586.95 1293.98 2528.05 1274.35C2473.9 1256.3 2333.45 1327.86 2262.33 1400.55Z" clip-rule="evenodd" class="colorF4AD5E svgShape"></path><path fill="#dcdcdc" d="M2238.68 2121.33C2227.08 2200.32 2149.27 2427.3 2111.81 2530.91 2138.4 2423.64 2194.46 2191.54 2206.06 2121.33 2217.66 2051.12 2242.3 1726.38 2253.18 1572.78 2253.18 1722.72 2250.28 2042.34 2238.68 2121.33zM2472.56 2530.91C2620.36 2233.69 2580.71 2233.69 2598.73 1824.1 2587.92 1923.17 2561.24 2143.79 2541.05 2233.69 2520.87 2323.58 2424.5 2469.29 2378.83 2530.91H2472.56zM2111.81 1765.19C2136.95 1736.92 2172.02 1652.63 2194.28 1572.78 2178.57 1686.66 2170.72 1725.93 2158.94 1804.46 2105.53 1835.88 2003.17 1859.44 1958.67 1867.29 1999.25 1845.04 2086.68 1793.47 2111.81 1765.19z" class="color032068 svgShape"></path><path fill="#dcdcdc" d="M2001.87 1855.51C1923.33 1795.82 1801.6 1765.19 1750.55 1757.34 1768.88 1790.06 1814.95 1858.65 1852.65 1871.22 1890.35 1883.78 1967.83 1865.98 2001.87 1855.51zM2127.52 1109.43C2143.23 1065.45 2181.19 1036.13 2198.2 1026.96 2226.48 1102.36 2262.34 1118.59 2276.74 1117.28 2276.74 1097.65 2300.3 1070.16 2327.79 1093.72 2371.77 1131.42 2333.02 1167.02 2308.15 1180.11L2410.25 1293.98 2445.59 1282.2C2477 1278.28 2512.34 1286.13 2579.1 1372.52 2632.5 1441.63 2651.09 1422.26 2653.71 1403.93 2677.27 1227.23 2555.54 1136.91 2492.71 1085.87 2429.88 1034.82 2410.25 892.208 2276.74 905.234 2147.94 917.799 2119.67 1037.44 2127.52 1109.43zM2481.64 2373.84C2476.1 2256.75 2502.43 2114.05 2575.17 2051.85 2568.24 2098.2 2548.85 2197.48 2540.53 2238.46 2532.22 2279.44 2496.65 2347.01 2481.64 2373.84zM2319.93 1274.35C2310.51 1277.49 2287.21 1279.58 2276.74 1282.2L2292.45 1317.54 2319.93 1274.35z" class="color032068 svgShape"></path><path fill="#d6e05e" d="M650.502 428.955C650.502 410.746 665.313 395.985 683.583 395.985H1253.89C1272.16 395.985 1286.97 410.746 1286.97 428.955V674.677C1286.97 692.886 1272.16 707.647 1253.89 707.647H683.583C665.313 707.647 650.502 692.886 650.502 674.677V428.955Z" class="colorfff svgShape"></path><path fill="#dcdcdc" fill-rule="evenodd" d="M643.886 428.955C643.886 407.105 661.659 389.391 683.583 389.391H1253.89C1275.81 389.391 1293.59 407.105 1293.59 428.955V674.677C1293.59 696.528 1275.81 714.241 1253.89 714.241H683.583C661.659 714.241 643.886 696.528 643.886 674.677V428.955ZM683.583 402.579C668.967 402.579 657.118 414.388 657.118 428.955V674.677C657.118 689.244 668.967 701.053 683.583 701.053H1253.89C1268.5 701.053 1280.35 689.244 1280.35 674.677V428.955C1280.35 414.388 1268.5 402.579 1253.89 402.579H683.583Z" clip-rule="evenodd" class="color032068 svgShape"></path><path fill="#c133f5" d="M841.239 551.537C841.239 570.619 825.718 586.088 806.572 586.088 787.425 586.088 771.904 570.619 771.904 551.537 771.904 532.455 787.425 516.986 806.572 516.986 825.718 516.986 841.239 532.455 841.239 551.537zM1006.79 551.533C1006.79 570.615 991.27 586.083 972.124 586.083 952.977 586.083 937.456 570.615 937.456 551.533 937.456 532.451 952.977 516.982 972.124 516.982 991.27 516.982 1006.79 532.451 1006.79 551.533zM1176.03 551.533C1176.03 570.615 1160.51 586.083 1141.36 586.083 1122.21 586.083 1106.69 570.615 1106.69 551.533 1106.69 532.451 1122.21 516.982 1141.36 516.982 1160.51 516.982 1176.03 532.451 1176.03 551.533z" class="colorF4AD5E svgShape"></path><path fill="#d6e05e" d="M1648.2 504.595C1648.2 488.039 1661.63 474.618 1678.2 474.618H2287.6C2304.17 474.618 2317.6 488.039 2317.6 504.595V773.347C2317.6 789.903 2304.17 803.324 2287.6 803.324H1678.2C1661.63 803.324 1648.2 789.903 1648.2 773.347V504.595Z" class="colorfff svgShape"></path><path fill="#dcdcdc" fill-rule="evenodd" d="M1642.2 504.595C1642.2 484.728 1658.32 468.623 1678.2 468.623H2287.6C2307.48 468.623 2323.6 484.728 2323.6 504.595V773.347C2323.6 793.214 2307.48 809.319 2287.6 809.319H1678.2C1658.32 809.319 1642.2 793.214 1642.2 773.347V504.595ZM1678.2 480.614C1664.94 480.614 1654.2 491.35 1654.2 504.595V773.347C1654.2 786.592 1664.94 797.329 1678.2 797.329H2287.6C2300.86 797.329 2311.6 786.592 2311.6 773.347V504.595C2311.6 491.35 2300.86 480.614 2287.6 480.614H1678.2Z" clip-rule="evenodd" class="color032068 svgShape"></path><path fill="#c133f5" d="M1752.67 601.273C1752.67 584.717 1766.1 571.296 1782.67 571.296H1861.98C1878.54 571.296 1891.97 584.717 1891.97 601.273V680.536C1891.97 697.092 1878.54 710.513 1861.98 710.513H1782.67C1766.1 710.513 1752.67 697.092 1752.67 680.536V601.273Z" class="colorF4AD5E svgShape"></path><path fill="#dcdcdc" fill-rule="evenodd" d="M2209.26 600.495H1988.71V588.505H2209.26V600.495ZM2096.98 704.908H1988.71V692.917H2096.98V704.908Z" clip-rule="evenodd" class="color032068 svgShape"></path><path fill="#c133f5" d="M2607.14 727.752L2571.85 774.512C2569.7 777.357 2566.2 778.726 2562.77 778.061L2519.16 769.606C2509.78 767.787 2504.11 779.989 2511.36 786.424L2545.63 816.886C2548.14 819.11 2549.32 822.535 2548.74 825.896L2540.14 876.125C2538.53 885.567 2549.76 891.412 2556.12 884.437L2591.34 845.837C2593.4 843.571 2596.4 842.476 2599.38 842.897L2640.13 848.638C2649.31 849.932 2654.51 838.095 2647.53 831.793L2617.23 804.43C2614.79 802.233 2613.63 798.89 2614.15 795.593L2623.71 735.256C2625.27 725.388 2613.09 719.87 2607.14 727.752zM335.644 850.332L339.471 884.596C339.704 886.68 338.759 888.694 337.021 889.817L314.914 904.094C310.158 907.166 312.676 914.654 318.385 914.415L345.407 913.286C347.38 913.204 349.274 914.171 350.389 915.831L367.052 940.635C370.185 945.298 377.365 943.173 377.265 937.613L376.711 906.838C376.678 905.032 377.518 903.34 378.967 902.296L398.747 888.042C403.203 884.831 400.635 877.687 395.092 877.875L371.027 878.691C369.095 878.756 367.243 877.816 366.13 876.205L345.781 846.726C342.453 841.905 334.999 844.556 335.644 850.332z" class="colorF4AD5E svgShape"></path></svg></g></svg>